<svg xmlns="http://www.w3.org/2000/svg" fill="none" viewBox="226 650 1049 201">
  <path
    fill="currentColor"
    d="M516.82 748.173s-.727 1.018-.727 2.254c0 1.237.727 2.255.727 2.255 10.542 12.798 16.068 21.961 16.068 40.505 0 18.617-12.724 36.797-27.774 46.032-15.05 9.236-29.154 11.636-80.92 11.636H232.035c-3.272 0-6.035-2.691-6.035-6.036v-24.871c0-3.345 2.763-6.036 6.035-6.036h226.548c14.977 0 32.645-5.89 32.645-23.052 0-17.235-20.503-22.253-33.517-22.253H232.035c-3.272 0-6.035-2.69-6.035-6.035v-24.289c0-3.345 2.763-6.109 6.035-6.109h225.676c13.014 0 33.517-4.945 33.517-22.179 0-17.163-17.668-23.053-32.645-23.053H232.035c-3.272 0-6.035-2.691-6.035-6.036v-24.87c0-3.345 2.763-6.036 6.035-6.036h192.159c51.766 0 65.87 2.4 80.92 11.635 15.05 9.236 27.774 27.416 27.774 46.032 0 18.544-5.526 27.707-16.068 40.506Zm191.432-10.254c2.763 0 4.944 2.255 4.944 5.018v26.979a4.903 4.903 0 0 1-4.944 4.945h-72.269c-19.049 0-35.989-4.654-43.987-13.089-7.924-8.363-10.687-23.853-10.687-43.633v-63.194c0-2.763 2.254-4.945 5.017-4.945h33.735a4.904 4.904 0 0 1 4.944 4.945v56.213c0 25.889 17.085 26.761 29.3 26.761h53.947Zm489.738-81.883c19.34 5.163 49.51 20.653 63.76 46.832 14.18 26.179 13.24 47.632 13.24 47.632s.94 21.38-13.24 47.559c-14.25 26.18-44.42 41.742-63.76 46.905-19.34 5.091-65.07 6.036-92.7 6.036H973.261c-3.344 0-6.107-2.691-6.107-6.036v-24.87c0-3.345 2.763-6.036 6.107-6.036h117.199c43.84 0 77.36-1.164 93.5-5.018 16.07-3.854 28.65-12.072 39.12-26.107 10.39-14.035 9.23-32.433 9.23-32.433s1.16-18.398-9.23-32.433c-10.47-14.036-23.05-22.253-39.12-26.107-16.14-3.854-49.66-5.018-93.5-5.018H973.261c-3.344 0-6.107-2.691-6.107-6.036v-24.87c0-3.345 2.763-6.036 6.107-6.036h132.029c27.63 0 73.36.945 92.7 6.036ZM914.516 650h-33.663c-2.762 0-5.016 2.182-5.016 4.945v56.213c0 25.889-17.086 26.761-29.3 26.761H739.588a5.028 5.028 0 0 0-5.017 5.018v102.9a5.028 5.028 0 0 0 5.017 5.018h41.078a5.028 5.028 0 0 0 5.017-5.018v-65.958a5.028 5.028 0 0 1 5.016-5.018h74.159c19.049 0 35.989-4.654 43.987-13.089 7.925-8.363 10.688-23.853 10.688-43.633v-63.194c0-2.763-2.254-4.945-5.017-4.945Z"
  ></path>
</svg>
